<mxfile host="app.diagrams.net" modified="2021-01-25T03:19:07.170Z" agent="5.0 (Macintosh; Intel Mac OS X 10_15_6) AppleWebKit/605.1.15 (KHTML, like Gecko) Version/14.0.2 Safari/605.1.15" etag="ASzuVW5moZ7XipFogzyD" version="14.2.4" type="github">
  <diagram id="kgpKYQtTHZ0yAKxKKP6v" name="Page-1">
    <mxGraphModel dx="1901" dy="1060" grid="1" gridSize="10" guides="1" tooltips="1" connect="1" arrows="1" fold="1" page="1" pageScale="1" pageWidth="850" pageHeight="1100" math="0" shadow="0">
      <root>
        <mxCell id="0" />
        <mxCell id="1" parent="0" />
        <mxCell id="3nuBFxr9cyL0pnOWT2aG-1" value="Logger" style="shape=umlLifeline;perimeter=lifelinePerimeter;container=1;collapsible=0;recursiveResize=0;rounded=0;shadow=0;strokeWidth=1;" parent="1" vertex="1">
          <mxGeometry x="120" y="80" width="100" height="560" as="geometry" />
        </mxCell>
        <mxCell id="3nuBFxr9cyL0pnOWT2aG-5" value="AppenderAttachableImpl" style="shape=umlLifeline;perimeter=lifelinePerimeter;container=1;collapsible=0;recursiveResize=0;rounded=0;shadow=0;strokeWidth=1;" parent="1" vertex="1">
          <mxGeometry x="340" y="80" width="160" height="560" as="geometry" />
        </mxCell>
        <mxCell id="C7x68nF5cG3kWC3AfKZx-3" value="" style="curved=1;endArrow=classic;html=1;" edge="1" parent="1" source="3nuBFxr9cyL0pnOWT2aG-1" target="3nuBFxr9cyL0pnOWT2aG-1">
          <mxGeometry width="50" height="50" relative="1" as="geometry">
            <mxPoint x="180" y="270" as="sourcePoint" />
            <mxPoint x="270" y="320" as="targetPoint" />
            <Array as="points">
              <mxPoint x="200" y="160" />
              <mxPoint x="200" y="190" />
            </Array>
          </mxGeometry>
        </mxCell>
        <mxCell id="C7x68nF5cG3kWC3AfKZx-4" value="info" style="text;html=1;strokeColor=none;fillColor=none;align=center;verticalAlign=middle;whiteSpace=wrap;rounded=0;" vertex="1" parent="1">
          <mxGeometry x="200" y="170" width="40" height="10" as="geometry" />
        </mxCell>
        <mxCell id="C7x68nF5cG3kWC3AfKZx-9" value="" style="curved=1;endArrow=classic;html=1;exitX=0.52;exitY=0.236;exitDx=0;exitDy=0;exitPerimeter=0;" edge="1" parent="1" source="3nuBFxr9cyL0pnOWT2aG-1">
          <mxGeometry width="50" height="50" relative="1" as="geometry">
            <mxPoint x="176" y="214" as="sourcePoint" />
            <mxPoint x="173.5" y="240" as="targetPoint" />
            <Array as="points">
              <mxPoint x="204" y="210" />
              <mxPoint x="204" y="240" />
            </Array>
          </mxGeometry>
        </mxCell>
        <mxCell id="C7x68nF5cG3kWC3AfKZx-12" value="filterAndLog_0_Or3Plus" style="text;html=1;strokeColor=none;fillColor=none;align=center;verticalAlign=middle;whiteSpace=wrap;rounded=0;" vertex="1" parent="1">
          <mxGeometry x="250" y="220" width="40" height="20" as="geometry" />
        </mxCell>
        <mxCell id="C7x68nF5cG3kWC3AfKZx-13" value="" style="curved=1;endArrow=classic;html=1;exitX=0.51;exitY=0.309;exitDx=0;exitDy=0;exitPerimeter=0;" edge="1" parent="1" source="3nuBFxr9cyL0pnOWT2aG-1">
          <mxGeometry width="50" height="50" relative="1" as="geometry">
            <mxPoint x="175" y="254" as="sourcePoint" />
            <mxPoint x="172.5" y="280" as="targetPoint" />
            <Array as="points">
              <mxPoint x="203" y="250" />
              <mxPoint x="203" y="280" />
            </Array>
          </mxGeometry>
        </mxCell>
        <mxCell id="C7x68nF5cG3kWC3AfKZx-14" value="buildLoggingEventAndAppend" style="text;html=1;strokeColor=none;fillColor=none;align=center;verticalAlign=middle;whiteSpace=wrap;rounded=0;" vertex="1" parent="1">
          <mxGeometry x="270" y="260" width="40" height="20" as="geometry" />
        </mxCell>
        <mxCell id="C7x68nF5cG3kWC3AfKZx-15" value="" style="curved=1;endArrow=classic;html=1;exitX=0.52;exitY=0.38;exitDx=0;exitDy=0;exitPerimeter=0;" edge="1" parent="1" source="3nuBFxr9cyL0pnOWT2aG-1">
          <mxGeometry width="50" height="50" relative="1" as="geometry">
            <mxPoint x="176" y="295" as="sourcePoint" />
            <mxPoint x="173.5" y="321" as="targetPoint" />
            <Array as="points">
              <mxPoint x="204" y="291" />
              <mxPoint x="204" y="321" />
            </Array>
          </mxGeometry>
        </mxCell>
        <mxCell id="C7x68nF5cG3kWC3AfKZx-16" value="callAppenders" style="text;html=1;strokeColor=none;fillColor=none;align=center;verticalAlign=middle;whiteSpace=wrap;rounded=0;" vertex="1" parent="1">
          <mxGeometry x="230" y="300" width="40" height="20" as="geometry" />
        </mxCell>
        <mxCell id="C7x68nF5cG3kWC3AfKZx-20" value="" style="endArrow=classic;html=1;" edge="1" parent="1" source="3nuBFxr9cyL0pnOWT2aG-1">
          <mxGeometry width="50" height="50" relative="1" as="geometry">
            <mxPoint x="400" y="430" as="sourcePoint" />
            <mxPoint x="420" y="380" as="targetPoint" />
          </mxGeometry>
        </mxCell>
        <mxCell id="C7x68nF5cG3kWC3AfKZx-21" value="appendLoopOnAppenders" style="edgeLabel;html=1;align=center;verticalAlign=middle;resizable=0;points=[];" vertex="1" connectable="0" parent="C7x68nF5cG3kWC3AfKZx-20">
          <mxGeometry x="-0.1018" y="1" relative="1" as="geometry">
            <mxPoint x="1" y="1" as="offset" />
          </mxGeometry>
        </mxCell>
        <mxCell id="C7x68nF5cG3kWC3AfKZx-22" value="UnsynchronizedAppenderBase" style="shape=umlLifeline;perimeter=lifelinePerimeter;container=1;collapsible=0;recursiveResize=0;rounded=0;shadow=0;strokeWidth=1;" vertex="1" parent="1">
          <mxGeometry x="550" y="80" width="180" height="560" as="geometry" />
        </mxCell>
        <mxCell id="C7x68nF5cG3kWC3AfKZx-23" value="" style="endArrow=classic;html=1;exitX=0.488;exitY=0.75;exitDx=0;exitDy=0;exitPerimeter=0;" edge="1" parent="1">
          <mxGeometry width="50" height="50" relative="1" as="geometry">
            <mxPoint x="418.0799999999999" y="410" as="sourcePoint" />
            <mxPoint x="639.5" y="410" as="targetPoint" />
            <Array as="points">
              <mxPoint x="530" y="410" />
            </Array>
          </mxGeometry>
        </mxCell>
        <mxCell id="C7x68nF5cG3kWC3AfKZx-33" value="&lt;span style=&quot;font-size: 11px ; background-color: rgb(255 , 255 , 255)&quot;&gt;appendLoopOnAppenders&lt;/span&gt;" style="text;html=1;align=center;verticalAlign=middle;resizable=0;points=[];autosize=1;" vertex="1" parent="1">
          <mxGeometry x="450" y="401" width="140" height="20" as="geometry" />
        </mxCell>
        <mxCell id="C7x68nF5cG3kWC3AfKZx-35" value="" style="curved=1;endArrow=classic;html=1;exitX=0.525;exitY=0.586;exitDx=0;exitDy=0;exitPerimeter=0;" edge="1" parent="1">
          <mxGeometry width="50" height="50" relative="1" as="geometry">
            <mxPoint x="645" y="428.15999999999985" as="sourcePoint" />
            <mxPoint x="645" y="460" as="targetPoint" />
            <Array as="points">
              <mxPoint x="681" y="430" />
              <mxPoint x="681" y="450" />
            </Array>
          </mxGeometry>
        </mxCell>
        <mxCell id="C7x68nF5cG3kWC3AfKZx-36" value="doAppend" style="edgeLabel;html=1;align=center;verticalAlign=middle;resizable=0;points=[];" vertex="1" connectable="0" parent="C7x68nF5cG3kWC3AfKZx-35">
          <mxGeometry x="-0.0355" relative="1" as="geometry">
            <mxPoint x="29" as="offset" />
          </mxGeometry>
        </mxCell>
        <mxCell id="C7x68nF5cG3kWC3AfKZx-37" value="AsyncAppenderBase" style="shape=umlLifeline;perimeter=lifelinePerimeter;container=1;collapsible=0;recursiveResize=0;rounded=0;shadow=0;strokeWidth=1;" vertex="1" parent="1">
          <mxGeometry x="770" y="80" width="180" height="560" as="geometry" />
        </mxCell>
        <mxCell id="C7x68nF5cG3kWC3AfKZx-38" value="" style="endArrow=classic;html=1;" edge="1" parent="1">
          <mxGeometry width="50" height="50" relative="1" as="geometry">
            <mxPoint x="639.5" y="510" as="sourcePoint" />
            <mxPoint x="859.5" y="510" as="targetPoint" />
          </mxGeometry>
        </mxCell>
        <mxCell id="C7x68nF5cG3kWC3AfKZx-39" value="append" style="edgeLabel;html=1;align=center;verticalAlign=middle;resizable=0;points=[];" vertex="1" connectable="0" parent="C7x68nF5cG3kWC3AfKZx-38">
          <mxGeometry x="-0.0409" y="3" relative="1" as="geometry">
            <mxPoint as="offset" />
          </mxGeometry>
        </mxCell>
        <mxCell id="C7x68nF5cG3kWC3AfKZx-40" value="" style="curved=1;endArrow=classic;html=1;exitX=0.525;exitY=0.586;exitDx=0;exitDy=0;exitPerimeter=0;" edge="1" parent="1">
          <mxGeometry width="50" height="50" relative="1" as="geometry">
            <mxPoint x="865" y="528.1599999999999" as="sourcePoint" />
            <mxPoint x="865" y="560" as="targetPoint" />
            <Array as="points">
              <mxPoint x="901" y="530" />
              <mxPoint x="901" y="550" />
            </Array>
          </mxGeometry>
        </mxCell>
        <mxCell id="C7x68nF5cG3kWC3AfKZx-41" value="put" style="edgeLabel;html=1;align=center;verticalAlign=middle;resizable=0;points=[];" vertex="1" connectable="0" parent="C7x68nF5cG3kWC3AfKZx-40">
          <mxGeometry x="-0.0355" relative="1" as="geometry">
            <mxPoint x="29" as="offset" />
          </mxGeometry>
        </mxCell>
        <mxCell id="C7x68nF5cG3kWC3AfKZx-45" value="AppenderAttachableImpl" style="shape=umlLifeline;perimeter=lifelinePerimeter;container=1;collapsible=0;recursiveResize=0;rounded=0;shadow=0;strokeWidth=1;" vertex="1" parent="1">
          <mxGeometry x="990" y="80" width="160" height="560" as="geometry" />
        </mxCell>
        <mxCell id="C7x68nF5cG3kWC3AfKZx-46" value="" style="endArrow=classic;html=1;" edge="1" parent="1">
          <mxGeometry width="50" height="50" relative="1" as="geometry">
            <mxPoint x="859.5" y="280" as="sourcePoint" />
            <mxPoint x="1069.5" y="280" as="targetPoint" />
          </mxGeometry>
        </mxCell>
        <mxCell id="C7x68nF5cG3kWC3AfKZx-47" value="Worker.run" style="edgeLabel;html=1;align=center;verticalAlign=middle;resizable=0;points=[];" vertex="1" connectable="0" parent="C7x68nF5cG3kWC3AfKZx-46">
          <mxGeometry x="-0.0143" y="2" relative="1" as="geometry">
            <mxPoint x="1" as="offset" />
          </mxGeometry>
        </mxCell>
        <mxCell id="C7x68nF5cG3kWC3AfKZx-48" value="UnsynchronizedAppenderBase" style="shape=umlLifeline;perimeter=lifelinePerimeter;container=1;collapsible=0;recursiveResize=0;rounded=0;shadow=0;strokeWidth=1;" vertex="1" parent="1">
          <mxGeometry x="1180" y="80" width="180" height="560" as="geometry" />
        </mxCell>
        <mxCell id="C7x68nF5cG3kWC3AfKZx-50" value="" style="endArrow=classic;html=1;exitX=0.488;exitY=0.75;exitDx=0;exitDy=0;exitPerimeter=0;" edge="1" parent="1">
          <mxGeometry width="50" height="50" relative="1" as="geometry">
            <mxPoint x="1068.08" y="320" as="sourcePoint" />
            <mxPoint x="1270" y="320" as="targetPoint" />
            <Array as="points">
              <mxPoint x="1180" y="320" />
            </Array>
          </mxGeometry>
        </mxCell>
        <mxCell id="C7x68nF5cG3kWC3AfKZx-51" value="appendLoopOnAppenders" style="edgeLabel;html=1;align=center;verticalAlign=middle;resizable=0;points=[];" vertex="1" connectable="0" parent="C7x68nF5cG3kWC3AfKZx-50">
          <mxGeometry x="-0.0499" y="3" relative="1" as="geometry">
            <mxPoint as="offset" />
          </mxGeometry>
        </mxCell>
        <mxCell id="C7x68nF5cG3kWC3AfKZx-52" value="OutputStreamAppender" style="shape=umlLifeline;perimeter=lifelinePerimeter;container=1;collapsible=0;recursiveResize=0;rounded=0;shadow=0;strokeWidth=1;" vertex="1" parent="1">
          <mxGeometry x="1410" y="80" width="180" height="560" as="geometry" />
        </mxCell>
        <mxCell id="C7x68nF5cG3kWC3AfKZx-53" value="" style="curved=1;endArrow=classic;html=1;exitX=0.525;exitY=0.586;exitDx=0;exitDy=0;exitPerimeter=0;" edge="1" parent="1">
          <mxGeometry width="50" height="50" relative="1" as="geometry">
            <mxPoint x="1275" y="338.15999999999985" as="sourcePoint" />
            <mxPoint x="1275" y="370" as="targetPoint" />
            <Array as="points">
              <mxPoint x="1311" y="340" />
              <mxPoint x="1311" y="360" />
            </Array>
          </mxGeometry>
        </mxCell>
        <mxCell id="C7x68nF5cG3kWC3AfKZx-54" value="doAppend" style="edgeLabel;html=1;align=center;verticalAlign=middle;resizable=0;points=[];" vertex="1" connectable="0" parent="C7x68nF5cG3kWC3AfKZx-53">
          <mxGeometry x="-0.0355" relative="1" as="geometry">
            <mxPoint x="29" as="offset" />
          </mxGeometry>
        </mxCell>
        <mxCell id="C7x68nF5cG3kWC3AfKZx-55" value="" style="endArrow=classic;html=1;exitX=0.488;exitY=0.75;exitDx=0;exitDy=0;exitPerimeter=0;" edge="1" parent="1" target="C7x68nF5cG3kWC3AfKZx-52">
          <mxGeometry width="50" height="50" relative="1" as="geometry">
            <mxPoint x="1268.08" y="390" as="sourcePoint" />
            <mxPoint x="1470" y="390" as="targetPoint" />
            <Array as="points">
              <mxPoint x="1380" y="390" />
            </Array>
          </mxGeometry>
        </mxCell>
        <mxCell id="C7x68nF5cG3kWC3AfKZx-56" value="append" style="edgeLabel;html=1;align=center;verticalAlign=middle;resizable=0;points=[];" vertex="1" connectable="0" parent="C7x68nF5cG3kWC3AfKZx-55">
          <mxGeometry x="-0.0499" y="3" relative="1" as="geometry">
            <mxPoint as="offset" />
          </mxGeometry>
        </mxCell>
        <mxCell id="C7x68nF5cG3kWC3AfKZx-57" value="" style="curved=1;endArrow=classic;html=1;exitX=0.525;exitY=0.586;exitDx=0;exitDy=0;exitPerimeter=0;" edge="1" parent="1">
          <mxGeometry width="50" height="50" relative="1" as="geometry">
            <mxPoint x="1505" y="408.15999999999985" as="sourcePoint" />
            <mxPoint x="1505" y="440" as="targetPoint" />
            <Array as="points">
              <mxPoint x="1541" y="410" />
              <mxPoint x="1541" y="430" />
            </Array>
          </mxGeometry>
        </mxCell>
        <mxCell id="C7x68nF5cG3kWC3AfKZx-58" value="subAppend" style="edgeLabel;html=1;align=center;verticalAlign=middle;resizable=0;points=[];" vertex="1" connectable="0" parent="C7x68nF5cG3kWC3AfKZx-57">
          <mxGeometry x="-0.0355" relative="1" as="geometry">
            <mxPoint x="29" as="offset" />
          </mxGeometry>
        </mxCell>
        <mxCell id="C7x68nF5cG3kWC3AfKZx-61" value="OutputStream" style="shape=umlLifeline;perimeter=lifelinePerimeter;container=1;collapsible=0;recursiveResize=0;rounded=0;shadow=0;strokeWidth=1;" vertex="1" parent="1">
          <mxGeometry x="1630" y="80" width="180" height="560" as="geometry" />
        </mxCell>
        <mxCell id="C7x68nF5cG3kWC3AfKZx-63" value="" style="endArrow=classic;html=1;exitX=0.488;exitY=0.75;exitDx=0;exitDy=0;exitPerimeter=0;" edge="1" parent="1">
          <mxGeometry width="50" height="50" relative="1" as="geometry">
            <mxPoint x="1498.08" y="470" as="sourcePoint" />
            <mxPoint x="1720" y="470" as="targetPoint" />
            <Array as="points">
              <mxPoint x="1610" y="470" />
            </Array>
          </mxGeometry>
        </mxCell>
        <mxCell id="C7x68nF5cG3kWC3AfKZx-64" value="writeBytes" style="edgeLabel;html=1;align=center;verticalAlign=middle;resizable=0;points=[];" vertex="1" connectable="0" parent="C7x68nF5cG3kWC3AfKZx-63">
          <mxGeometry x="-0.0499" y="3" relative="1" as="geometry">
            <mxPoint as="offset" />
          </mxGeometry>
        </mxCell>
        <mxCell id="C7x68nF5cG3kWC3AfKZx-65" value="" style="curved=1;endArrow=classic;html=1;exitX=0.525;exitY=0.586;exitDx=0;exitDy=0;exitPerimeter=0;" edge="1" parent="1">
          <mxGeometry width="50" height="50" relative="1" as="geometry">
            <mxPoint x="1725" y="498.15999999999985" as="sourcePoint" />
            <mxPoint x="1725" y="530" as="targetPoint" />
            <Array as="points">
              <mxPoint x="1761" y="500" />
              <mxPoint x="1761" y="520" />
            </Array>
          </mxGeometry>
        </mxCell>
        <mxCell id="C7x68nF5cG3kWC3AfKZx-66" value="write" style="edgeLabel;html=1;align=center;verticalAlign=middle;resizable=0;points=[];" vertex="1" connectable="0" parent="C7x68nF5cG3kWC3AfKZx-65">
          <mxGeometry x="-0.0355" relative="1" as="geometry">
            <mxPoint x="29" as="offset" />
          </mxGeometry>
        </mxCell>
      </root>
    </mxGraphModel>
  </diagram>
</mxfile>
